<svg width="1483" height="398" viewBox="0 0 1483 398" fill="none" xmlns="http://www.w3.org/2000/svg">
<mask id="mask0_220_283" style="mask-type:luminance" maskUnits="userSpaceOnUse" x="0" y="0" width="1483" height="398">
<path d="M1482.67 0H0V397.333H1482.67V0Z" fill="white"/>
</mask>
<g mask="url(#mask0_220_283)">
<path d="M24.5591 270.223C21.2935 270.223 18.3716 269.608 15.7883 268.39C13.2154 267.181 11.0747 265.494 9.35079 263.327C7.61641 261.16 6.4237 258.65 5.76745 255.785C5.11641 252.91 5.07995 249.822 5.66329 246.515C6.38724 242.473 7.88204 237.989 10.1425 233.056C12.4029 228.114 15.2987 222.947 18.83 217.556C22.356 212.155 26.3925 206.697 30.9341 201.181C35.4862 195.655 40.4237 190.301 45.7466 185.119C51.0643 179.942 56.6529 175.108 62.5175 170.619C68.3768 166.119 74.356 162.171 80.455 158.765C86.5643 155.348 92.6945 152.681 98.8508 150.765C105.002 148.848 111.023 147.89 116.913 147.89C121.424 147.89 125.252 148.608 128.392 150.035C131.528 151.468 133.83 153.489 135.288 156.098C136.747 158.697 137.153 161.744 136.517 165.244C135.892 168.942 134.564 172.65 132.538 176.369C130.523 180.093 128.023 183.733 125.038 187.285C122.049 190.827 118.747 194.233 115.122 197.494C111.497 200.744 107.726 203.775 103.809 206.577C99.8925 209.369 96.0383 211.838 92.2466 213.973C91.856 214.223 91.4185 214.348 90.9341 214.348C90.2102 214.348 89.5904 214.093 89.08 213.577C88.5643 213.067 88.3091 212.447 88.3091 211.723C88.3091 210.697 88.7727 209.921 89.705 209.39C95.2883 206.223 100.476 202.775 105.267 199.035C110.059 195.285 114.299 191.421 117.997 187.431C121.689 183.431 124.689 179.483 126.997 175.577C129.314 171.66 130.788 167.926 131.413 164.369C131.997 160.869 131.007 158.129 128.455 156.14C125.913 154.14 122.064 153.14 116.913 153.14C111.314 153.14 105.601 154.056 99.7675 155.89C93.9341 157.713 88.0904 160.254 82.2466 163.515C76.4133 166.765 70.7102 170.546 65.1425 174.848C59.5695 179.14 54.2466 183.775 49.1633 188.744C44.0904 193.702 39.3768 198.822 35.0175 204.098C30.6685 209.379 26.7987 214.593 23.4133 219.744C20.0383 224.9 17.2518 229.838 15.0591 234.556C12.8768 239.265 11.4497 243.546 10.7675 247.39C10.1841 250.739 10.4081 253.739 11.4341 256.39C12.4445 259.046 14.0852 261.129 16.3508 262.66C18.6112 264.202 21.3508 264.973 24.5591 264.973C30.7258 264.973 37.0904 264.421 43.6633 263.327C50.231 262.228 56.8091 260.754 63.3925 258.91C69.9862 257.067 76.4185 254.973 82.6841 252.64C88.9602 250.306 94.9029 247.879 100.517 245.348C106.142 242.822 111.257 240.317 115.872 237.827C120.497 235.343 124.46 233.077 127.767 231.035C128.153 230.744 128.622 230.598 129.163 230.598C129.882 230.598 130.502 230.858 131.017 231.369C131.528 231.884 131.788 232.504 131.788 233.223C131.788 234.155 131.372 234.91 130.538 235.494C127.231 237.593 123.205 239.89 118.455 242.39C113.715 244.89 108.465 247.447 102.705 250.056C96.955 252.655 90.856 255.16 84.4133 257.577C77.9654 259.983 71.3612 262.124 64.6008 264.015C57.8352 265.916 51.0591 267.421 44.2675 268.535C37.4862 269.66 30.9185 270.223 24.5591 270.223Z" fill="white"/>
<path d="M283.29 97.4727C283.29 99.6133 282.154 102.535 279.894 106.243C277.644 109.941 274.446 114.202 270.311 119.035C266.17 123.868 261.3 129.118 255.706 134.785C250.123 140.452 243.998 146.379 237.331 152.556C230.675 158.738 223.665 165.004 216.29 171.348C208.925 177.681 201.399 183.952 193.706 190.16C186.024 196.358 178.394 202.327 170.811 208.077C163.227 213.816 155.873 219.15 148.748 224.077C141.623 229.009 134.92 233.379 128.644 237.181C120.967 249.629 117.123 258.988 117.123 265.264C117.123 267.249 117.576 268.598 118.477 269.306C119.368 270.014 121.102 270.368 123.686 270.368C125.779 270.368 128.727 269.707 132.519 268.389C136.311 267.082 140.717 265.233 145.748 262.848C150.79 260.457 156.248 257.639 162.123 254.389C168.008 251.129 174.102 247.546 180.394 243.639C186.696 239.723 192.988 235.598 199.269 231.264C199.654 230.921 200.165 230.743 200.79 230.743C201.524 230.743 202.144 231.004 202.644 231.514C203.154 232.03 203.415 232.65 203.415 233.368C203.415 234.301 203.024 235.035 202.248 235.577C197.581 238.785 192.706 242.009 187.623 245.243C182.54 248.467 177.425 251.577 172.29 254.577C167.165 257.566 162.17 260.332 157.311 262.889C152.446 265.441 147.878 267.665 143.602 269.556C139.321 271.457 135.482 272.941 132.081 274.014C128.675 275.082 125.878 275.618 123.686 275.618C119.701 275.618 116.738 274.775 114.79 273.098C112.847 271.415 111.873 268.806 111.873 265.264C111.873 261.707 112.925 257.421 115.019 252.389C117.102 247.348 120.029 241.78 123.79 235.681C127.566 229.572 132.003 223.098 137.102 216.264C142.212 209.431 147.8 202.421 153.873 195.223C159.956 188.03 166.316 180.822 172.956 173.598C179.592 166.379 186.363 159.327 193.269 152.452C200.186 145.566 207.008 139.009 213.748 132.785C220.482 126.566 226.982 120.858 233.248 115.66C239.524 110.452 245.352 105.941 250.727 102.118C256.102 98.3008 260.863 95.3372 265.019 93.2227C269.17 91.0977 272.519 90.0352 275.061 90.0352C277.628 90.0352 279.644 90.6966 281.102 92.0143C282.561 93.3216 283.29 95.1393 283.29 97.4727ZM275.061 95.2852C272.904 95.2852 270.045 96.1914 266.477 97.9935C262.904 99.7852 258.758 102.342 254.04 105.66C249.316 108.967 244.206 112.884 238.706 117.41C233.217 121.926 227.462 126.905 221.436 132.348C215.404 137.796 209.269 143.587 203.019 149.723C196.769 155.848 190.54 162.155 184.331 168.639C178.133 175.129 172.128 181.681 166.311 188.306C160.503 194.921 155.024 201.431 149.873 207.848C144.717 214.264 140.05 220.441 135.873 226.368C142.383 222.15 149.144 217.509 156.144 212.452C163.144 207.384 170.227 202.056 177.394 196.473C184.571 190.879 191.675 185.16 198.706 179.327C205.732 173.493 212.566 167.676 219.206 161.868C225.842 156.051 232.113 150.368 238.019 144.827C243.936 139.285 249.337 134.025 254.227 129.035C259.113 124.051 263.331 119.493 266.873 115.368C270.425 111.233 273.175 107.629 275.123 104.556C277.066 101.488 278.04 99.1289 278.04 97.4727C278.04 96.6549 277.831 96.0872 277.415 95.7643C277.008 95.4466 276.227 95.2852 275.061 95.2852Z" fill="white"/>
<path d="M272.35 230.597C273.027 230.597 273.631 230.868 274.162 231.41C274.704 231.941 274.975 232.545 274.975 233.222C274.975 234.254 274.517 235.035 273.6 235.576C269.267 238.05 264.496 239.821 259.287 240.889C254.09 241.962 248.715 242.342 243.162 242.035C237.621 241.717 232.126 240.733 226.683 239.076C221.235 237.425 216.058 235.113 211.142 232.139C211.485 234.863 211.376 237.696 210.808 240.639C210.251 243.587 209.329 246.431 208.037 249.181C206.756 251.92 205.23 254.384 203.454 256.576C201.673 258.759 199.767 260.493 197.725 261.785C195.683 263.076 193.59 263.722 191.454 263.722C189.36 263.722 187.673 262.951 186.392 261.41C185.1 259.884 184.454 257.858 184.454 255.326C184.454 252.274 185.319 249.071 187.037 245.722C188.761 242.363 191.157 239.097 194.225 235.931C197.293 232.764 200.819 229.993 204.808 227.618C204.944 227.467 205.063 227.321 205.162 227.181C205.412 226.306 205.944 225.655 206.767 225.222C207.6 224.78 208.454 224.675 209.329 224.91C209.563 224.967 209.756 224.967 209.912 224.91C210.631 224.524 211.397 224.181 212.204 223.889C213.006 223.597 213.819 223.306 214.642 223.014C215.027 222.92 215.319 222.868 215.517 222.868C216.194 222.868 216.798 223.139 217.329 223.681C217.871 224.212 218.142 224.816 218.142 225.493C218.142 226.816 217.537 227.67 216.329 228.056C216.173 228.097 216.022 228.134 215.871 228.16C215.73 228.191 215.59 228.254 215.454 228.347C215.397 228.347 215.355 228.363 215.329 228.389C215.313 228.405 215.308 228.41 215.308 228.41C219.735 230.941 224.392 232.91 229.267 234.326C234.152 235.743 239.079 236.576 244.037 236.826C249.006 237.066 253.787 236.712 258.371 235.764C262.965 234.806 267.188 233.233 271.037 231.035C271.423 230.743 271.86 230.597 272.35 230.597ZM191.454 258.472C192.871 258.472 194.313 257.941 195.787 256.868C197.272 255.8 198.668 254.368 199.975 252.576C201.293 250.774 202.438 248.754 203.412 246.514C204.381 244.28 205.11 241.993 205.6 239.66C206.084 237.326 206.209 235.113 205.975 233.014C202.767 235.113 199.944 237.451 197.517 240.035C195.084 242.608 193.178 245.217 191.787 247.868C190.402 250.509 189.704 252.993 189.704 255.326C189.704 257.425 190.287 258.472 191.454 258.472Z" fill="white"/>
<path d="M359.222 230.598C359.956 230.598 360.576 230.858 361.076 231.369C361.586 231.884 361.847 232.504 361.847 233.223C361.847 234.546 361.243 235.379 360.034 235.723C355.019 237.379 349.649 239.056 343.93 240.765C338.222 242.463 332.498 244.155 326.763 245.848C321.222 247.504 315.857 249.098 310.68 250.64C305.498 252.171 300.748 253.634 296.43 255.035C296.18 255.192 296.034 255.317 295.993 255.41C294.284 257.785 292.164 260.223 289.638 262.723C287.107 265.233 284.357 267.546 281.388 269.66C278.43 271.785 275.399 273.499 272.305 274.806C269.222 276.124 266.289 276.785 263.513 276.785C261.529 276.785 259.966 276.332 258.826 275.431C257.675 274.525 257.097 273.327 257.097 271.827C257.097 269.978 258.586 267.895 261.555 265.577C264.529 263.27 268.685 260.853 274.034 258.327C279.378 255.801 285.602 253.296 292.701 250.806L293.138 250.515C293.623 249.838 294.045 249.155 294.409 248.473C294.784 247.796 294.894 247.338 294.743 247.098C294.545 246.754 293.914 246.629 292.847 246.723C291.774 246.822 290.461 247.009 288.909 247.285C287.352 247.551 285.769 247.827 284.159 248.119C282.269 248.452 280.336 248.759 278.368 249.035C276.394 249.301 274.581 249.431 272.93 249.431C270.164 249.431 268.024 248.9 266.513 247.827C264.998 246.759 264.243 245.223 264.243 243.223C264.243 241.239 264.92 239.114 266.284 236.848C267.659 234.588 269.482 232.348 271.763 230.14C274.055 227.921 276.581 225.91 279.347 224.119C282.123 222.317 284.94 220.869 287.805 219.785C290.68 218.692 293.357 218.14 295.847 218.14C297.888 218.14 299.513 218.66 300.722 219.702C301.94 220.744 302.555 222.14 302.555 223.89C302.555 224.431 302.503 224.947 302.409 225.431C301.92 227.379 300.972 229.306 299.555 231.223C298.149 233.14 296.623 234.593 294.972 235.577C294.482 235.817 294.019 235.931 293.576 235.931C292.852 235.931 292.232 235.676 291.722 235.16C291.206 234.65 290.951 234.03 290.951 233.306C290.951 232.28 291.388 231.525 292.263 231.035C293.097 230.551 293.899 229.9 294.68 229.077C295.456 228.244 296.086 227.384 296.576 226.494C297.06 225.593 297.305 224.822 297.305 224.181C297.305 223.89 297.159 223.692 296.868 223.577C296.576 223.452 296.232 223.39 295.847 223.39C293.998 223.39 291.899 223.843 289.555 224.744C287.222 225.634 284.888 226.822 282.555 228.306C280.222 229.796 278.065 231.405 276.097 233.14C274.138 234.864 272.545 236.577 271.326 238.285C270.118 239.983 269.513 241.463 269.513 242.723C269.513 243.254 269.763 243.629 270.263 243.848C270.774 244.072 271.664 244.181 272.93 244.181C274.388 244.181 276.003 244.067 277.784 243.827C279.56 243.577 281.394 243.28 283.284 242.931C285.034 242.64 286.769 242.379 288.493 242.14C290.227 241.89 291.774 241.765 293.138 241.765C295.373 241.765 297.086 242.218 298.284 243.119C299.477 244.025 299.998 245.301 299.847 246.952C299.805 247.15 299.769 247.39 299.743 247.681C299.711 247.973 299.649 248.239 299.555 248.473C303.399 247.265 307.513 246.009 311.888 244.702C316.263 243.384 320.732 242.093 325.305 240.827C331.039 239.119 336.743 237.426 342.409 235.744C348.076 234.067 353.388 232.4 358.347 230.744C358.638 230.65 358.93 230.598 359.222 230.598ZM264.534 271.535C266.336 271.535 268.477 270.999 270.951 269.931C273.435 268.858 276.055 267.338 278.805 265.369C281.555 263.395 284.211 261.119 286.784 258.535C283.67 259.817 280.659 261.15 277.743 262.556C274.826 263.973 272.201 265.312 269.868 266.577C267.534 267.838 265.706 268.931 264.388 269.848C263.763 270.233 263.451 270.624 263.451 271.015C263.451 271.358 263.815 271.535 264.534 271.535Z" fill="white"/>
<path d="M427.131 230.597C427.866 230.597 428.491 230.858 429.006 231.368C429.517 231.884 429.777 232.504 429.777 233.222C429.777 234.155 429.407 234.863 428.673 235.347C424.006 238.754 419.069 241.863 413.86 244.681C408.662 247.504 403.485 249.983 398.319 252.118C393.162 254.259 388.277 256.05 383.652 257.493C379.037 258.925 374.933 260.014 371.34 260.764C367.741 261.524 364.923 261.91 362.881 261.91C357.725 261.91 353.725 260.957 350.881 259.056C348.037 257.155 346.61 254.483 346.61 251.035C346.61 248.743 347.209 246.316 348.402 243.743C349.584 241.16 351.173 238.639 353.173 236.181C355.173 233.722 357.392 231.488 359.84 229.472C362.298 227.462 364.803 225.858 367.36 224.66C369.912 223.467 372.329 222.868 374.61 222.868C376.662 222.868 378.308 223.405 379.548 224.472C380.782 225.545 381.402 226.951 381.402 228.701C381.402 229.925 380.975 231.134 380.131 232.326C379.282 233.509 378.136 234.597 376.694 235.597C375.261 236.597 373.704 237.405 372.027 238.014C370.345 238.629 368.657 238.931 366.965 238.931C363.6 238.931 360.902 238.493 358.86 237.618C356.678 239.993 354.965 242.379 353.715 244.764C352.475 247.139 351.86 249.233 351.86 251.035C351.86 254.774 355.532 256.639 362.881 256.639C364.767 256.639 367.412 256.295 370.819 255.597C374.22 254.889 378.11 253.842 382.485 252.451C386.871 251.066 391.532 249.342 396.465 247.285C401.407 245.217 406.366 242.837 411.34 240.139C416.324 237.431 421.079 234.425 425.61 231.118C425.996 230.774 426.506 230.597 427.131 230.597ZM376.152 228.701C376.152 228.509 376.058 228.363 375.881 228.264C375.715 228.17 375.287 228.118 374.61 228.118C373.11 228.118 371.36 228.587 369.36 229.514C367.371 230.431 365.329 231.743 363.235 233.451C364.261 233.592 365.506 233.66 366.965 233.66C368.808 233.66 370.412 233.363 371.777 232.764C373.136 232.155 374.204 231.462 374.985 230.681C375.761 229.905 376.152 229.243 376.152 228.701Z" fill="white"/>
<path d="M553.991 183.181C554.726 183.238 555.335 183.524 555.825 184.035C556.309 184.55 556.554 185.149 556.554 185.826C556.554 186.55 556.293 187.17 555.783 187.681C555.267 188.196 554.648 188.451 553.929 188.451H553.783C540.059 187.91 525.976 187.639 511.533 187.639C497.085 187.639 482.595 187.962 468.054 188.597C454.496 204.504 441.137 220.712 427.97 237.222C414.819 253.722 402.194 270.285 390.095 286.91C377.986 303.545 366.674 320.061 356.158 336.452C356.606 337.129 356.507 338.056 355.866 339.222C353.632 342.972 351.637 344.847 349.887 344.847C348.72 344.847 347.924 344.493 347.491 343.785C347.049 343.077 347.023 342.118 347.408 340.91V340.827C347.7 340.004 348.168 339.129 348.804 338.202C359.252 321.67 370.528 305.019 382.637 288.243C394.752 271.462 407.403 254.738 420.595 238.056C433.804 221.379 447.241 204.988 460.908 188.889C447.101 189.514 433.575 190.389 420.325 191.514C407.075 192.629 394.418 193.962 382.345 195.514H381.991C381.257 195.514 380.637 195.264 380.137 194.764C379.627 194.254 379.366 193.629 379.366 192.889C379.366 192.212 379.595 191.618 380.054 191.118C380.512 190.608 381.064 190.321 381.7 190.264C394.632 188.613 408.174 187.217 422.325 186.076C436.476 184.941 450.871 184.05 465.512 183.41C474.356 173.108 483.429 162.722 492.72 152.264C502.012 141.806 511.538 131.3 521.304 120.743C521.746 120.16 522.387 119.868 523.22 119.868C523.939 119.868 524.559 120.129 525.075 120.639C525.585 121.155 525.845 121.774 525.845 122.493C525.845 123.233 525.601 123.816 525.116 124.243C516.502 133.634 507.809 143.254 499.033 153.097C490.252 162.946 481.46 172.951 472.658 183.118C486.168 182.634 499.773 182.389 513.47 182.389C527.163 182.389 540.668 182.655 553.991 183.181Z" fill="white"/>
<path d="M571.582 172.389C570.842 172.389 570.217 172.139 569.707 171.639C569.207 171.129 568.957 170.504 568.957 169.764C568.957 168.462 569.561 167.634 570.769 167.285C575.488 165.634 580.634 164.092 586.207 162.66C591.775 161.233 597.582 159.905 603.624 158.681C609.676 157.462 615.801 156.363 621.999 155.389C628.207 154.42 634.301 153.608 640.29 152.951C646.275 152.3 651.978 151.795 657.394 151.431C662.811 151.056 667.759 150.868 672.249 150.868C684.832 150.868 694.686 151.967 701.811 154.16C708.936 156.342 712.837 159.53 713.519 163.722L713.603 164.16C713.603 164.884 713.342 165.504 712.832 166.014C712.316 166.53 711.696 166.785 710.978 166.785C710.337 166.785 709.759 166.571 709.249 166.139C708.749 165.696 708.446 165.155 708.353 164.514C708.103 162.92 706.405 161.488 703.269 160.222C700.144 158.946 695.915 157.946 690.582 157.222C685.259 156.488 679.15 156.118 672.249 156.118C667.816 156.118 662.936 156.295 657.603 156.639C652.28 156.972 646.676 157.488 640.79 158.181C634.915 158.863 628.92 159.67 622.811 160.597C616.712 161.514 610.686 162.587 604.728 163.806C598.769 165.014 593.051 166.326 587.582 167.743C582.108 169.149 577.066 170.649 572.457 172.243C572.165 172.342 571.874 172.389 571.582 172.389ZM553.561 274.597C552.821 274.597 552.196 274.337 551.686 273.827C551.186 273.311 550.936 272.691 550.936 271.972C550.936 271.722 550.983 271.452 551.082 271.16C553.749 262.019 564.566 246.363 583.54 224.181C583.775 223.946 583.863 223.795 583.811 223.722C583.769 223.639 583.582 223.629 583.249 223.681C579.457 224.306 575.749 225.009 572.124 225.785C568.499 226.566 565.051 227.389 561.79 228.264C561.499 228.363 561.254 228.41 561.061 228.41C560.337 228.41 559.717 228.16 559.207 227.66C558.691 227.149 558.436 226.524 558.436 225.785C558.436 225.201 558.613 224.67 558.978 224.181C559.353 223.696 559.832 223.384 560.415 223.243C564.4 222.118 568.775 221.087 573.54 220.139C578.301 219.196 583.311 218.358 588.561 217.618C589.103 217.524 589.54 217.306 589.874 216.972C596.249 209.722 603.29 201.983 610.999 193.743C618.707 185.493 627.009 176.821 635.915 167.722C636.441 167.196 637.071 166.931 637.811 166.931C638.53 166.931 639.15 167.191 639.665 167.701C640.176 168.201 640.436 168.821 640.436 169.556C640.436 170.181 640.191 170.785 639.707 171.368C631.582 179.634 624.019 187.504 617.019 194.972C610.019 202.431 603.551 209.472 597.624 216.097C597.426 216.295 597.353 216.425 597.394 216.493C597.446 216.566 597.644 216.576 597.978 216.535C605.228 215.8 612.217 215.384 618.957 215.285C625.691 215.191 631.733 215.41 637.082 215.951C637.759 215.993 638.332 216.274 638.79 216.785C639.249 217.3 639.478 217.899 639.478 218.576C639.478 219.3 639.217 219.92 638.707 220.431C638.207 220.946 637.587 221.201 636.853 221.201H636.644C632.504 220.759 628.025 220.53 623.207 220.514C618.4 220.488 613.42 220.634 608.269 220.951C603.113 221.259 597.957 221.733 592.79 222.368C592.165 222.509 591.728 222.754 591.478 223.097C581.071 235.056 572.905 245.181 566.978 253.472C561.045 261.764 557.42 268.17 556.103 272.702C555.905 273.228 555.582 273.67 555.124 274.035C554.665 274.41 554.144 274.597 553.561 274.597Z" fill="white"/>
<path d="M736.641 230.389C737.318 230.389 737.922 230.66 738.453 231.202C738.995 231.733 739.266 232.337 739.266 233.014C739.266 233.931 738.875 234.66 738.099 235.202C735.334 237.108 732.188 239.066 728.662 241.077C725.131 243.092 721.422 245.066 717.537 246.993C713.646 248.91 709.745 250.712 705.828 252.389C701.912 254.056 698.141 255.535 694.516 256.827C690.891 258.118 687.589 259.134 684.62 259.868C681.662 260.587 679.188 260.952 677.203 260.952C673.12 260.952 669.995 260.056 667.828 258.264C665.662 256.462 664.578 253.858 664.578 250.452C664.578 248.702 664.891 246.952 665.516 245.202C666.151 243.452 667.151 241.483 668.516 239.285C668.901 238.608 669.016 238.181 668.849 238.014C668.683 237.848 668.328 237.983 667.787 238.41C666.037 239.827 664.016 241.41 661.724 243.16C659.443 244.91 657.063 246.676 654.578 248.452C652.104 250.217 649.688 251.858 647.328 253.368C644.964 254.868 642.813 256.072 640.87 256.973C638.922 257.879 637.37 258.327 636.203 258.327C634.453 258.327 633.058 257.806 632.016 256.764C630.964 255.712 630.433 254.285 630.433 252.493C630.433 249.483 632.099 245.702 635.433 241.16C638.766 236.608 643.542 231.556 649.766 226.014C650.25 225.53 650.834 225.285 651.516 225.285C652.193 225.285 652.797 225.556 653.328 226.098C653.87 226.629 654.141 227.233 654.141 227.91C654.141 228.827 653.828 229.483 653.203 229.868L653.266 229.806C647.818 234.764 643.526 239.217 640.391 243.16C637.256 247.092 635.683 250.056 635.683 252.056C635.683 252.447 635.776 252.717 635.953 252.868C636.12 253.009 636.302 253.077 636.495 253.077C638.245 253.077 641.516 251.462 646.308 248.223C651.099 244.988 657.651 240.014 665.974 233.306C669.516 230.431 672.417 228.087 674.683 226.264C676.943 224.447 678.745 223.098 680.078 222.223C681.412 221.348 682.443 220.91 683.183 220.91C685.516 220.91 686.568 221.738 686.349 223.389C686.125 225.046 684.584 227.473 681.724 230.681C680.5 232.046 679.193 233.546 677.808 235.181C676.433 236.806 675.131 238.493 673.912 240.243C672.703 241.993 671.714 243.743 670.953 245.493C670.203 247.243 669.828 248.9 669.828 250.452C669.828 252.301 670.396 253.639 671.537 254.473C672.688 255.296 674.578 255.702 677.203 255.702C678.896 255.702 681.104 255.363 683.828 254.681C686.547 254.004 689.599 253.066 692.974 251.868C696.36 250.676 699.917 249.28 703.641 247.681C707.36 246.072 711.089 244.342 714.828 242.493C718.578 240.65 722.188 238.738 725.662 236.764C729.146 234.796 732.297 232.837 735.12 230.889C735.506 230.556 736.016 230.389 736.641 230.389Z" fill="white"/>
<path d="M890.708 97.4727C890.708 99.6133 889.573 102.535 887.312 106.243C885.062 109.941 881.864 114.202 877.729 119.035C873.588 123.868 868.719 129.118 863.125 134.785C857.542 140.452 851.417 146.379 844.75 152.556C838.094 158.738 831.083 165.004 823.708 171.348C816.344 177.681 808.818 183.952 801.125 190.16C793.443 196.358 785.812 202.327 778.229 208.077C770.646 213.816 763.292 219.15 756.167 224.077C749.042 229.009 742.338 233.379 736.062 237.181C728.385 249.629 724.542 258.988 724.542 265.264C724.542 267.249 724.995 268.598 725.896 269.306C726.786 270.014 728.521 270.368 731.104 270.368C733.198 270.368 736.146 269.707 739.937 268.389C743.729 267.082 748.135 265.233 753.167 262.848C758.208 260.457 763.667 257.639 769.542 254.389C775.427 251.129 781.521 247.546 787.812 243.639C794.114 239.723 800.406 235.598 806.687 231.264C807.073 230.921 807.583 230.743 808.208 230.743C808.943 230.743 809.562 231.004 810.062 231.514C810.573 232.03 810.833 232.65 810.833 233.368C810.833 234.301 810.443 235.035 809.667 235.577C805 238.785 800.125 242.009 795.042 245.243C789.958 248.467 784.844 251.577 779.708 254.577C774.583 257.566 769.588 260.332 764.729 262.889C759.864 265.441 755.297 267.665 751.021 269.556C746.739 271.457 742.901 272.941 739.5 274.014C736.094 275.082 733.297 275.618 731.104 275.618C727.12 275.618 724.156 274.775 722.208 273.098C720.265 271.415 719.292 268.806 719.292 265.264C719.292 261.707 720.344 257.421 722.437 252.389C724.521 247.348 727.448 241.78 731.208 235.681C734.984 229.572 739.422 223.098 744.521 216.264C749.63 209.431 755.219 202.421 761.292 195.223C767.375 188.03 773.734 180.822 780.375 173.598C787.01 166.379 793.781 159.327 800.687 152.452C807.604 145.566 814.427 139.009 821.167 132.785C827.901 126.566 834.401 120.858 840.667 115.66C846.943 110.452 852.771 105.941 858.146 102.118C863.521 98.3008 868.281 95.3372 872.437 93.2227C876.588 91.0977 879.937 90.0352 882.479 90.0352C885.047 90.0352 887.062 90.6966 888.521 92.0143C889.979 93.3216 890.708 95.1393 890.708 97.4727ZM882.479 95.2852C880.323 95.2852 877.463 96.1914 873.896 97.9935C870.323 99.7852 866.177 102.342 861.458 105.66C856.734 108.967 851.625 112.884 846.125 117.41C840.635 121.926 834.88 126.905 828.854 132.348C822.823 137.796 816.687 143.587 810.437 149.723C804.187 155.848 797.958 162.155 791.75 168.639C785.552 175.129 779.547 181.681 773.729 188.306C767.922 194.921 762.443 201.431 757.292 207.848C752.135 214.264 747.469 220.441 743.292 226.368C749.802 222.15 756.562 217.509 763.562 212.452C770.562 207.384 777.646 202.056 784.812 196.473C791.989 190.879 799.094 185.16 806.125 179.327C813.151 173.493 819.984 167.676 826.625 161.868C833.26 156.051 839.531 150.368 845.437 144.827C851.354 139.285 856.755 134.025 861.646 129.035C866.531 124.051 870.75 119.493 874.292 115.368C877.844 111.233 880.594 107.629 882.542 104.556C884.484 101.488 885.458 99.1289 885.458 97.4727C885.458 96.6549 885.25 96.0872 884.833 95.7643C884.427 95.4466 883.646 95.2852 882.479 95.2852Z" fill="white"/>
<path d="M962.56 97.4727C962.56 99.6133 961.424 102.535 959.164 106.243C956.914 109.941 953.716 114.202 949.581 119.035C945.44 123.868 940.57 129.118 934.976 134.785C929.393 140.452 923.268 146.379 916.601 152.556C909.945 158.738 902.935 165.004 895.56 171.348C888.195 177.681 880.669 183.952 872.976 190.16C865.294 196.358 857.664 202.327 850.081 208.077C842.497 213.816 835.143 219.15 828.018 224.077C820.893 229.009 814.19 233.379 807.914 237.181C800.237 249.629 796.393 258.988 796.393 265.264C796.393 267.249 796.846 268.598 797.747 269.306C798.638 270.014 800.372 270.368 802.956 270.368C805.049 270.368 807.997 269.707 811.789 268.389C815.581 267.082 819.987 265.233 825.018 262.848C830.06 260.457 835.518 257.639 841.393 254.389C847.278 251.129 853.372 247.546 859.664 243.639C865.966 239.723 872.258 235.598 878.539 231.264C878.924 230.921 879.435 230.743 880.06 230.743C880.794 230.743 881.414 231.004 881.914 231.514C882.424 232.03 882.685 232.65 882.685 233.368C882.685 234.301 882.294 235.035 881.518 235.577C876.851 238.785 871.976 242.009 866.893 245.243C861.81 248.467 856.695 251.577 851.56 254.577C846.435 257.566 841.44 260.332 836.581 262.889C831.716 265.441 827.148 267.665 822.872 269.556C818.591 271.457 814.752 272.941 811.351 274.014C807.945 275.082 805.148 275.618 802.956 275.618C798.971 275.618 796.008 274.775 794.06 273.098C792.117 271.415 791.143 268.806 791.143 265.264C791.143 261.707 792.195 257.421 794.289 252.389C796.372 247.348 799.299 241.78 803.06 235.681C806.836 229.572 811.273 223.098 816.372 216.264C821.482 209.431 827.07 202.421 833.143 195.223C839.226 188.03 845.586 180.822 852.226 173.598C858.862 166.379 865.633 159.327 872.539 152.452C879.456 145.566 886.278 139.009 893.018 132.785C899.752 126.566 906.252 120.858 912.518 115.66C918.794 110.452 924.622 105.941 929.997 102.118C935.372 98.3008 940.133 95.3372 944.289 93.2227C948.44 91.0977 951.789 90.0352 954.331 90.0352C956.898 90.0352 958.914 90.6966 960.372 92.0143C961.831 93.3216 962.56 95.1393 962.56 97.4727ZM954.331 95.2852C952.174 95.2852 949.315 96.1914 945.747 97.9935C942.174 99.7852 938.028 102.342 933.31 105.66C928.586 108.967 923.476 112.884 917.976 117.41C912.487 121.926 906.732 126.905 900.706 132.348C894.674 137.796 888.539 143.587 882.289 149.723C876.039 155.848 869.81 162.155 863.601 168.639C857.403 175.129 851.398 181.681 845.581 188.306C839.773 194.921 834.294 201.431 829.143 207.848C823.987 214.264 819.32 220.441 815.143 226.368C821.653 222.15 828.414 217.509 835.414 212.452C842.414 207.384 849.497 202.056 856.664 196.473C863.841 190.879 870.945 185.16 877.976 179.327C885.002 173.493 891.836 167.676 898.476 161.868C905.112 156.051 911.383 150.368 917.289 144.827C923.206 139.285 928.607 134.025 933.497 129.035C938.383 124.051 942.601 119.493 946.143 115.368C949.695 111.233 952.445 107.629 954.393 104.556C956.336 101.488 957.31 99.1289 957.31 97.4727C957.31 96.6549 957.101 96.0872 956.685 95.7643C956.278 95.4466 955.497 95.2852 954.331 95.2852Z" fill="white"/>
<path d="M1024.57 230.597C1025.24 230.597 1025.85 230.868 1026.38 231.41C1026.92 231.941 1027.19 232.545 1027.19 233.222C1027.19 234.254 1026.73 235.035 1025.82 235.576C1021.48 238.05 1016.71 239.821 1011.5 240.889C1006.3 241.962 1000.93 242.342 995.378 242.035C989.836 241.717 984.341 240.733 978.899 239.076C973.451 237.425 968.274 235.113 963.357 232.139C963.701 234.863 963.591 237.696 963.024 240.639C962.466 243.587 961.544 246.431 960.253 249.181C958.972 251.92 957.445 254.384 955.669 256.576C953.888 258.759 951.982 260.493 949.94 261.785C947.899 263.076 945.805 263.722 943.669 263.722C941.576 263.722 939.888 262.951 938.607 261.41C937.315 259.884 936.669 257.858 936.669 255.326C936.669 252.274 937.534 249.071 939.253 245.722C940.977 242.363 943.373 239.097 946.44 235.931C949.508 232.764 953.034 229.993 957.024 227.618C957.159 227.467 957.279 227.321 957.378 227.181C957.628 226.306 958.159 225.655 958.982 225.222C959.815 224.78 960.669 224.675 961.544 224.91C961.779 224.967 961.972 224.967 962.128 224.91C962.847 224.524 963.612 224.181 964.419 223.889C965.222 223.597 966.034 223.306 966.857 223.014C967.242 222.92 967.534 222.868 967.732 222.868C968.409 222.868 969.013 223.139 969.544 223.681C970.086 224.212 970.357 224.816 970.357 225.493C970.357 226.816 969.753 227.67 968.544 228.056C968.388 228.097 968.237 228.134 968.086 228.16C967.945 228.191 967.805 228.254 967.669 228.347C967.612 228.347 967.57 228.363 967.544 228.389C967.529 228.405 967.524 228.41 967.524 228.41C971.951 230.941 976.607 232.91 981.482 234.326C986.367 235.743 991.294 236.576 996.253 236.826C1001.22 237.066 1006 236.712 1010.59 235.764C1015.18 234.806 1019.4 233.233 1023.25 231.035C1023.64 230.743 1024.08 230.597 1024.57 230.597ZM943.669 258.472C945.086 258.472 946.529 257.941 948.003 256.868C949.487 255.8 950.883 254.368 952.19 252.576C953.508 250.774 954.654 248.754 955.628 246.514C956.597 244.28 957.326 241.993 957.815 239.66C958.3 237.326 958.425 235.113 958.19 233.014C954.982 235.113 952.159 237.451 949.732 240.035C947.3 242.608 945.393 245.217 944.003 247.868C942.617 250.509 941.919 252.993 941.919 255.326C941.919 257.425 942.503 258.472 943.669 258.472Z" fill="white"/>
<path d="M1080.81 230.597C1081.53 230.597 1082.15 230.858 1082.67 231.368C1083.18 231.884 1083.44 232.504 1083.44 233.222C1083.44 234.155 1083.05 234.889 1082.27 235.431C1076.73 239.321 1071.25 242.467 1065.85 244.868C1060.45 247.274 1055.15 249.108 1049.94 250.368C1044.74 251.634 1039.62 252.488 1034.58 252.931C1029.55 253.363 1024.63 253.577 1019.83 253.577C1018.9 253.577 1017.85 253.545 1016.69 253.472C1015.52 253.405 1014.31 253.321 1013.04 253.222C1006.57 261.873 1000.22 270.504 994 279.118C987.781 287.728 981.833 296.118 976.166 304.285C970.5 312.452 965.25 320.207 960.416 327.556C955.572 334.899 951.302 341.639 947.604 347.764C948.145 348.389 948.099 349.285 947.458 350.452C944.541 356.045 942.083 358.847 940.083 358.847C938.916 358.847 938.119 358.478 937.687 357.743C937.244 357.019 937.218 356.045 937.604 354.827C937.703 354.436 937.864 354.035 938.083 353.618C938.307 353.212 938.536 352.79 938.77 352.347C942.229 346.415 946.39 339.66 951.25 332.077C956.114 324.493 961.52 316.358 967.479 307.681C973.437 298.998 979.781 289.983 986.5 280.639C993.208 271.306 1000.08 261.941 1007.12 252.556C1003.53 252.03 999.619 251.264 995.395 250.264C991.161 249.264 986.906 248.014 982.625 246.514C981.406 246.129 980.791 245.3 980.791 244.035C980.791 243.3 981.052 242.681 981.562 242.181C982.078 241.67 982.697 241.41 983.416 241.41C983.614 241.41 983.786 241.425 983.937 241.452C984.078 241.467 984.224 241.504 984.375 241.556C989.14 243.212 993.802 244.535 998.354 245.535C1002.9 246.524 1007.02 247.238 1010.71 247.681C1012.75 244.962 1014.81 242.254 1016.87 239.556C1018.94 236.847 1021.02 234.181 1023.1 231.556C1023.1 231.212 1023.28 230.967 1023.62 230.827L1023.69 230.743C1035.11 215.967 1045.69 202.759 1055.42 191.118C1065.15 179.467 1073.86 169.571 1081.54 161.431C1089.22 153.28 1095.71 147.076 1101 142.826C1106.3 138.566 1110.27 136.431 1112.9 136.431C1114.6 136.431 1116 136.92 1117.08 137.889C1118.18 138.863 1118.73 140.108 1118.73 141.618C1118.73 143.118 1117.97 145.295 1116.46 148.139C1114.96 150.988 1112.82 154.321 1110.04 158.139C1107.28 161.962 1104.02 166.092 1100.27 170.535C1096.53 174.983 1092.42 179.597 1087.92 184.389C1083.42 189.181 1078.65 193.972 1073.6 198.764C1068.57 203.556 1063.42 208.191 1058.15 212.66C1052.88 217.134 1047.59 221.28 1042.29 225.097C1036.98 228.92 1031.8 232.238 1026.75 235.056L1016.75 248.264C1017.34 248.264 1017.9 248.28 1018.4 248.306C1018.91 248.321 1019.38 248.327 1019.83 248.327C1024.59 248.327 1029.36 248.129 1034.15 247.722C1038.94 247.306 1043.8 246.504 1048.73 245.306C1053.67 244.113 1058.69 242.379 1063.77 240.097C1068.85 237.806 1074.02 234.816 1079.27 231.118C1079.66 230.774 1080.17 230.597 1080.81 230.597ZM1036.31 222.868C1041.27 219.467 1046.32 215.566 1051.48 211.16C1056.63 206.759 1061.72 202.129 1066.75 197.264C1071.79 192.405 1076.61 187.524 1081.23 182.618C1085.85 177.701 1090.11 172.988 1094 168.472C1097.9 163.946 1101.31 159.847 1104.23 156.181C1107.15 152.504 1109.4 149.446 1111 147.014C1112.61 144.587 1113.42 143.03 1113.42 142.347C1113.42 141.962 1113.24 141.764 1112.9 141.764C1111.53 141.764 1109.51 142.738 1106.83 144.681C1104.17 146.629 1101.03 149.316 1097.44 152.743C1093.84 156.16 1089.96 160.097 1085.79 164.556C1081.63 169.004 1077.33 173.759 1072.87 178.826C1068.43 183.884 1064.02 189.014 1059.65 194.222C1055.27 199.42 1051.09 204.462 1047.1 209.347C1043.11 214.238 1039.52 218.743 1036.31 222.868Z" fill="white"/>
<path d="M1158.64 270.223C1155.38 270.223 1152.46 269.608 1149.87 268.39C1147.3 267.181 1145.16 265.494 1143.44 263.327C1141.7 261.16 1140.51 258.65 1139.85 255.785C1139.2 252.91 1139.17 249.822 1139.75 246.515C1140.47 242.473 1141.97 237.989 1144.23 233.056C1146.49 228.114 1149.38 222.947 1152.92 217.556C1156.44 212.155 1160.48 206.697 1165.02 201.181C1169.57 195.655 1174.51 190.301 1179.83 185.119C1185.15 179.942 1190.74 175.108 1196.6 170.619C1202.46 166.119 1208.44 162.171 1214.54 158.765C1220.65 155.348 1226.78 152.681 1232.94 150.765C1239.09 148.848 1245.11 147.89 1251 147.89C1255.51 147.89 1259.34 148.608 1262.48 150.035C1265.61 151.468 1267.92 153.489 1269.37 156.098C1270.83 158.697 1271.24 161.744 1270.6 165.244C1269.98 168.942 1268.65 172.65 1266.62 176.369C1264.61 180.093 1262.11 183.733 1259.12 187.285C1256.13 190.827 1252.83 194.233 1249.21 197.494C1245.58 200.744 1241.81 203.775 1237.89 206.577C1233.98 209.369 1230.12 211.838 1226.33 213.973C1225.94 214.223 1225.5 214.348 1225.02 214.348C1224.3 214.348 1223.68 214.093 1223.17 213.577C1222.65 213.067 1222.39 212.447 1222.39 211.723C1222.39 210.697 1222.86 209.921 1223.79 209.39C1229.37 206.223 1234.56 202.775 1239.35 199.035C1244.14 195.285 1248.38 191.421 1252.08 187.431C1255.77 183.431 1258.77 179.483 1261.08 175.577C1263.4 171.66 1264.87 167.926 1265.5 164.369C1266.08 160.869 1265.09 158.129 1262.54 156.14C1260 154.14 1256.15 153.14 1251 153.14C1245.4 153.14 1239.69 154.056 1233.85 155.89C1228.02 157.713 1222.18 160.254 1216.33 163.515C1210.5 166.765 1204.8 170.546 1199.23 174.848C1193.65 179.14 1188.33 183.775 1183.25 188.744C1178.18 193.702 1173.46 198.822 1169.1 204.098C1164.75 209.379 1160.88 214.593 1157.5 219.744C1154.12 224.9 1151.34 229.838 1149.14 234.556C1146.96 239.265 1145.54 243.546 1144.85 247.39C1144.27 250.739 1144.49 253.739 1145.52 256.39C1146.53 259.046 1148.17 261.129 1150.44 262.66C1152.7 264.202 1155.44 264.973 1158.64 264.973C1164.81 264.973 1171.18 264.421 1177.75 263.327C1184.32 262.228 1190.89 260.754 1197.48 258.91C1204.07 257.067 1210.5 254.973 1216.77 252.64C1223.05 250.306 1228.99 247.879 1234.6 245.348C1240.23 242.822 1245.34 240.317 1249.96 237.827C1254.58 235.343 1258.55 233.077 1261.85 231.035C1262.24 230.744 1262.71 230.598 1263.25 230.598C1263.97 230.598 1264.59 230.858 1265.1 231.369C1265.61 231.884 1265.87 232.504 1265.87 233.223C1265.87 234.155 1265.46 234.91 1264.62 235.494C1261.32 237.593 1257.29 239.89 1252.54 242.39C1247.8 244.89 1242.55 247.447 1236.79 250.056C1231.04 252.655 1224.94 255.16 1218.5 257.577C1212.05 259.983 1205.45 262.124 1198.69 264.015C1191.92 265.916 1185.14 267.421 1178.35 268.535C1171.57 269.66 1165 270.223 1158.64 270.223Z" fill="white"/>
<path d="M1334.58 230.597C1335.26 230.597 1335.87 230.868 1336.4 231.41C1336.94 231.941 1337.21 232.545 1337.21 233.222C1337.21 234.254 1336.75 235.035 1335.83 235.576C1331.5 238.05 1326.73 239.821 1321.52 240.889C1316.32 241.962 1310.95 242.342 1305.4 242.035C1299.85 241.717 1294.36 240.733 1288.92 239.076C1283.47 237.425 1278.29 235.113 1273.38 232.139C1273.72 234.863 1273.61 237.696 1273.04 240.639C1272.48 243.587 1271.56 246.431 1270.27 249.181C1268.99 251.92 1267.46 254.384 1265.69 256.576C1263.91 258.759 1262 260.493 1259.96 261.785C1257.92 263.076 1255.82 263.722 1253.69 263.722C1251.59 263.722 1249.91 262.951 1248.63 261.41C1247.33 259.884 1246.69 257.858 1246.69 255.326C1246.69 252.274 1247.55 249.071 1249.27 245.722C1251 242.363 1253.39 239.097 1256.46 235.931C1259.53 232.764 1263.05 229.993 1267.04 227.618C1267.18 227.467 1267.3 227.321 1267.4 227.181C1267.65 226.306 1268.18 225.655 1269 225.222C1269.83 224.78 1270.69 224.675 1271.56 224.91C1271.8 224.967 1271.99 224.967 1272.15 224.91C1272.87 224.524 1273.63 224.181 1274.44 223.889C1275.24 223.597 1276.05 223.306 1276.88 223.014C1277.26 222.92 1277.55 222.868 1277.75 222.868C1278.43 222.868 1279.03 223.139 1279.56 223.681C1280.1 224.212 1280.38 224.816 1280.38 225.493C1280.38 226.816 1279.77 227.67 1278.56 228.056C1278.41 228.097 1278.26 228.134 1278.1 228.16C1277.96 228.191 1277.82 228.254 1277.69 228.347C1277.63 228.347 1277.59 228.363 1277.56 228.389C1277.55 228.405 1277.54 228.41 1277.54 228.41C1281.97 230.941 1286.63 232.91 1291.5 234.326C1296.39 235.743 1301.31 236.576 1306.27 236.826C1311.24 237.066 1316.02 236.712 1320.6 235.764C1325.2 234.806 1329.42 233.233 1333.27 231.035C1333.66 230.743 1334.09 230.597 1334.58 230.597ZM1253.69 258.472C1255.1 258.472 1256.55 257.941 1258.02 256.868C1259.51 255.8 1260.9 254.368 1262.21 252.576C1263.53 250.774 1264.67 248.754 1265.65 246.514C1266.62 244.28 1267.34 241.993 1267.83 239.66C1268.32 237.326 1268.44 235.113 1268.21 233.014C1265 235.113 1262.18 237.451 1259.75 240.035C1257.32 242.608 1255.41 245.217 1254.02 247.868C1252.64 250.509 1251.94 252.993 1251.94 255.326C1251.94 257.425 1252.52 258.472 1253.69 258.472Z" fill="white"/>
<path d="M1336.19 262.493C1326.41 262.493 1321.52 259.035 1321.52 252.118C1321.52 251.441 1321.56 250.806 1321.64 250.222C1321.72 249.639 1321.8 249.108 1321.89 248.618C1322.28 246.342 1323.16 243.988 1324.52 241.556C1325.88 239.129 1327.55 236.806 1329.54 234.597C1331.54 232.379 1333.69 230.379 1336 228.597C1338.32 226.821 1340.64 225.425 1342.98 224.41C1345.31 223.384 1347.52 222.868 1349.6 222.868C1351.65 222.868 1353.29 223.399 1354.5 224.451C1355.72 225.493 1356.33 226.863 1356.33 228.556C1356.33 229.879 1355.99 231.295 1355.31 232.806C1354.63 234.306 1353.71 235.733 1352.56 237.076C1351.42 238.41 1350.14 239.488 1348.73 240.306C1348.24 240.556 1347.78 240.681 1347.35 240.681C1346.61 240.681 1345.99 240.425 1345.48 239.91C1344.98 239.399 1344.73 238.78 1344.73 238.056C1344.73 237.03 1345.16 236.274 1346.04 235.785C1346.86 235.3 1347.64 234.655 1348.39 233.847C1349.15 233.045 1349.78 232.201 1350.27 231.326C1350.75 230.451 1351 229.722 1351 229.139C1351.09 228.462 1350.63 228.118 1349.6 228.118C1348.04 228.118 1346.32 228.571 1344.41 229.472C1342.52 230.379 1340.63 231.587 1338.73 233.097C1336.84 234.597 1335.07 236.285 1333.41 238.16C1331.76 240.035 1330.36 241.962 1329.23 243.931C1328.09 245.889 1327.34 247.743 1327 249.493C1326.85 250.425 1326.77 251.3 1326.77 252.118C1326.77 254.024 1327.45 255.347 1328.81 256.097C1330.19 256.847 1332.64 257.222 1336.19 257.222C1340.36 257.222 1345.19 256.587 1350.66 255.306C1356.13 254.014 1361.95 252.201 1368.1 249.868C1374.25 247.535 1380.48 244.764 1386.77 241.556C1393.07 238.347 1399.14 234.842 1404.98 231.035C1405.42 230.743 1405.9 230.597 1406.44 230.597C1407.17 230.597 1407.79 230.858 1408.29 231.368C1408.8 231.884 1409.06 232.504 1409.06 233.222C1409.06 234.254 1408.65 234.988 1407.83 235.431C1401.84 239.363 1395.59 242.983 1389.08 246.285C1382.57 249.592 1376.09 252.451 1369.66 254.868C1363.25 257.274 1357.17 259.139 1351.44 260.472C1345.7 261.816 1340.61 262.493 1336.19 262.493Z" fill="white"/>
<path d="M1477.85 230.597C1478.53 230.597 1479.13 230.868 1479.66 231.41C1480.2 231.941 1480.47 232.545 1480.47 233.222C1480.47 234.254 1480.02 235.035 1479.1 235.576C1474.77 238.05 1469.99 239.821 1464.79 240.889C1459.59 241.962 1454.21 242.342 1448.66 242.035C1443.12 241.717 1437.63 240.733 1432.18 239.076C1426.73 237.425 1421.56 235.113 1416.64 232.139C1416.98 234.863 1416.88 237.696 1416.31 240.639C1415.75 243.587 1414.83 246.431 1413.54 249.181C1412.26 251.92 1410.73 254.384 1408.95 256.576C1407.17 258.759 1405.27 260.493 1403.22 261.785C1401.18 263.076 1399.09 263.722 1396.95 263.722C1394.86 263.722 1393.17 262.951 1391.89 261.41C1390.6 259.884 1389.95 257.858 1389.95 255.326C1389.95 252.274 1390.82 249.071 1392.54 245.722C1394.26 242.363 1396.66 239.097 1399.72 235.931C1402.79 232.764 1406.32 229.993 1410.31 227.618C1410.44 227.467 1410.56 227.321 1410.66 227.181C1410.91 226.306 1411.44 225.655 1412.27 225.222C1413.1 224.78 1413.95 224.675 1414.83 224.91C1415.06 224.967 1415.26 224.967 1415.41 224.91C1416.13 224.524 1416.9 224.181 1417.7 223.889C1418.51 223.597 1419.32 223.306 1420.14 223.014C1420.53 222.92 1420.82 222.868 1421.02 222.868C1421.69 222.868 1422.3 223.139 1422.83 223.681C1423.37 224.212 1423.64 224.816 1423.64 225.493C1423.64 226.816 1423.04 227.67 1421.83 228.056C1421.67 228.097 1421.52 228.134 1421.37 228.16C1421.23 228.191 1421.09 228.254 1420.95 228.347C1420.9 228.347 1420.85 228.363 1420.83 228.389C1420.81 228.405 1420.81 228.41 1420.81 228.41C1425.23 230.941 1429.89 232.91 1434.77 234.326C1439.65 235.743 1444.58 236.576 1449.54 236.826C1454.51 237.066 1459.29 236.712 1463.87 235.764C1468.46 234.806 1472.69 233.233 1476.54 231.035C1476.92 230.743 1477.36 230.597 1477.85 230.597ZM1396.95 258.472C1398.37 258.472 1399.81 257.941 1401.29 256.868C1402.77 255.8 1404.17 254.368 1405.47 252.576C1406.79 250.774 1407.94 248.754 1408.91 246.514C1409.88 244.28 1410.61 241.993 1411.1 239.66C1411.58 237.326 1411.71 235.113 1411.47 233.014C1408.27 235.113 1405.44 237.451 1403.02 240.035C1400.58 242.608 1398.68 245.217 1397.29 247.868C1395.9 250.509 1395.2 252.993 1395.2 255.326C1395.2 257.425 1395.79 258.472 1396.95 258.472Z" fill="white"/>
</g>
</svg>
